<svg width="257.78181874150835" height="176.85" viewBox="0 0 350.00000000000006 240.1158479763383" class="looka-1j8o68f"><defs id="SvgjsDefs3650"></defs><g id="SvgjsG3651" featurekey="symbolFeature-0" transform="matrix(1.7075935189524372,0,0,1.7075935189524372,89.62032242389006,-7.679168119898411)" fill="#506079"><g xmlns="http://www.w3.org/2000/svg" transform="translate(0,-952.36218)"><path style="text-indent:0;text-transform:none;direction:ltr;block-progression:tb;baseline-shift:baseline;color:;enable-background:accumulate;" d="m 63.260338,956.86512 c -3.06816,0.076 -6.16605,0.8974 -9,2.5312 -9.06863,5.2287 -12.17328,16.8814 -6.9375,25.9376 4.53647,7.84642 13.89614,11.22762 22.21875,8.59372 l 12.375,23.31246 c 0.75555,1.4208 2.7631,1.9953 4.15625,1.1875 l 3.46875,-2 c 1.38787,-0.8072 1.88503,-2.829 1.03125,-4.1875 l -13.9375,-22.37498 c 6.4272,-5.883 8.15622,-15.6938 3.625,-23.5312 -3.5996,-6.2261 -10.25006,-9.6363 -17,-9.4688 z m -54.1875002,5 c 0.1096,30.69602 -0.0958,59.16248 -0.0625,85.99998 l 78.0937502,0 c 0.0778,-9.9317 0.0647,-20.327 0.0625,-28.9375 -2.11401,1.1274 -4.96661,0.5324 -6,-1.0313 l 0,23.9688 -26.03125,0 0,-48.03116 c -2.23211,-1.0571 -4.26541,-2.5213 -6,-4.37502 l 0,52.40618 -34.062501,0 0,-73.99998 30.406251,0 c 0.95561,-2.2001 2.28311,-4.2426 4,-6 l -40.4062502,0 z m 54.3437502,0.9688 c 4.61308,-0.1274 9.17279,2.2043 11.65625,6.5 3.6123,6.2479 1.47546,14.1739 -4.78125,17.7812 -6.25672,3.60742 -14.16893,1.4668 -17.78125,-4.7812 -3.6123,-6.2481 -1.50671,-14.1427 4.75,-17.75 1.95523,-1.1274 4.0594,-1.6923 6.15625,-1.75 z m -46.343751,8.0312 0,8 6.03125,0 0,-8 -6.03125,0 z m 8.03125,0 0,8 6,0 0,-8 -6,0 z m 8,0 0,8 6.000001,0 0,-8 -6.000001,0 z m 8.000001,0 0,8 2.875,0 c -0.40538,-2.6888 -0.23128,-5.4076 0.4375,-8 l -3.3125,0 z m -24.031251,12 0,8.00002 6.03125,0 0,-8.00002 -6.03125,0 z m 8.03125,0 0,8.00002 6,0 0,-8.00002 -6,0 z m 8,0 0,8.00002 6.000001,0 0,-8.00002 -6.000001,0 z m 8.000001,0 0,8.00002 6.03125,0 0,-3.93752 c -0.8533,-1.2704 -1.59787,-2.7556 -2.09375,-4.0625 l -3.9375,0 z m 39.90625,3 c -0.86298,1.4841 -1.8851,2.8869 -3.125,4.125 l 1.15625,1.87502 2.125,0 0,3.4062 6,9.62496 0,-19.03118 -6.15625,0 z m -63.937501,9.00002 0,7.99996 6.03125,0 0,-7.99996 -6.03125,0 z m 8.03125,0 0,7.99996 6,0 0,-7.99996 -6,0 z m 8,0 0,7.99996 6.000001,0 0,-7.99996 -6.000001,0 z m 8.000001,0 0,7.99996 6.03125,0 0,-7.99996 -6.03125,0 z m 16.03125,0 0,7.99996 6,0 0,-7.09376 c -2.19892,-0.2223 -4.08131,-0.5023 -6,-0.9062 z m 11.875,0.25 c -1.27259,0.3406 -2.58269,0.5401 -3.875,0.625 l 0,7.12496 6.03125,0 0,-3.68746 -2.15625,-4.0625 z m -51.937501,11.74996 0,8 6.03125,0 0,-8 -6.03125,0 z m 8.03125,0 0,8 6,0 0,-8 -6,0 z m 8,0 0,8 6.000001,0 0,-8 -6.000001,0 z m 8.000001,0 0,8 6.03125,0 0,-8 -6.03125,0 z m 16.03125,0 0,8 6,0 0,-8 -6,0 z m 8,0 0,8 6.03125,0 0,-8 -6.03125,0 z m 8.03125,0 0,8 6,0 0,-0.6875 -3.90625,-7.3125 -2.09375,0 z m -56.093751,12 0,8 6.03125,0 0,-8 -6.03125,0 z m 8.03125,0 0,8 6,0 0,-8 -6,0 z m 8,0 0,8 6.000001,0 0,-8 -6.000001,0 z m 8.000001,0 0,8 6.03125,0 0,-8 -6.03125,0 z m 16.03125,0 0,8 6,0 0,-8 -6,0 z m 8,0 0,8 6.03125,0 0,-8 -6.03125,0 z m 8.03125,0 0,8 6,0 0,-8 -6,0 z m -56.093751,12 0,8 6.03125,0 0,-8 -6.03125,0 z m 8.03125,0 0,8 6,0 0,-8 -6,0 z m 8,0 0,8 6.000001,0 0,-8 -6.000001,0 z m 8.000001,0 0,8 6.03125,0 0,-8 -6.03125,0 z m 16.03125,0 0,8 6,0 0,-8 -6,0 z m 8,0 0,8 6.03125,0 0,-8 -6.03125,0 z m 7.9375,0 0,8 6,0 0,-8 -6,0 z" fill="#506079" fill-opacity="1" stroke="none" marker="none" visibility="visible" display="inline" overflow="visible"></path></g></g><g id="SvgjsG3652" featurekey="nameFeature-0" transform="matrix(1.6650541874324183,0,0,1.6650541874324183,-3.252351137001114,156.8864984420605)" fill="#506079"><path d="M37.715 40 l-7.4414 0 l-1.875 -20.234 l-6.0742 20.234 l-4.9219 0 l-6.0742 -20.332 l-1.8945 20.332 l-7.4805 0 l2.5195 -28.711 l10.879 0 l4.4922 14.668 l4.5508 -14.668 l10.84 0 z M61.6253125 40 l-1.8555 -5.3125 l-11.484 0 l-1.8359 5.3125 l-7.5586 0 l10.566 -28.711 l9.1602 0 l10.566 28.711 l-7.5586 0 z M50.4143125 28.555 l7.2266 0 l-3.6133 -10.391 z M71.58981875 40 l0 -28.711 l7.4414 0 l0 28.711 l-7.4414 0 z M104.2501875 11.289000000000001 l7.4414 0 l0 28.711 l-8.8477 0 l-10.957 -18.633 l0 18.633 l-7.4414 0 l0 -28.711 l8.75 0 l11.055 18.535 l0 -18.535 z M127.0468125 40.39063 c-6.2891 0 -11.406 -3.0273 -12.207 -8.7891 l7.7148 -1.7578 c0.21484 3.125 2.168 4.5898 4.8047 4.5898 c1.9141 0 3.0859 -0.91797 3.0859 -2.5586 c0 -2.1484 -2.7539 -2.9492 -5.957 -4.043 c-4.043 -1.3477 -8.5742 -3.0273 -8.5742 -8.3203 c0 -5.3516 4.3359 -8.6328 10.527 -8.6328 c5.0391 0 10.527 1.9922 11.719 7.9297 l-7.1484 1.7578 c-0.41016 -2.5977 -1.7773 -3.7305 -4.082 -3.7305 c-2.0508 0 -3.4961 0.80078 -3.4961 2.4805 c0 1.6016 2.5781 2.2461 5.5273 3.2031 c4.1211 1.3672 9.1992 3.2422 9.1992 8.9258 c0 6.3086 -5.3125 8.9453 -11.113 8.9453 z M154.76521875 40.39063 c-8.6719 0 -14.902 -5.8789 -14.902 -14.746 c0 -8.9258 6.2305 -14.766 14.902 -14.766 c8.6914 0 14.922 5.8398 14.922 14.766 c0 8.8672 -6.2305 14.746 -14.922 14.746 z M154.76521875 33.6328 c4.3359 0 7.5781 -3.0664 7.5781 -7.9883 s-3.2422 -8.0078 -7.5781 -8.0078 c-4.3164 0 -7.5195 3.0859 -7.5195 8.0078 s3.2031 7.9883 7.5195 7.9883 z M191.019375 17.754 l-10.391 0 l0 4.6875 l8.9063 0 l0 6.4063 l-8.9063 0 l0 11.152 l-7.4414 0 l0 -28.711 l17.832 0 l0 6.4648 z M212.15628125 11.289000000000001 l0 6.4648 l-6.4844 0 l0 22.246 l-7.3633 0 l0 -22.246 l-6.5039 0 l0 -6.4648 l20.352 0 z"></path></g><g id="SvgjsG3653" featurekey="sloganFeature-0" transform="matrix(0.42172442665033033,0,0,0.42172442665033033,34.22988887713224,231.59899219562706)" fill="#506079"><path d="M7.6953 5.888999999999999 c2.7637 0 4.4824 2.0508 4.4824 4.5605 c0 2.5684 -1.7188 4.4922 -4.4824 4.4922 l-2.9395 0 l0 5.0586 l-2.9297 0 l0 -14.111 l5.8691 0 z M7.207 12.4902 c1.4648 0 2.1484 -0.81055 2.1484 -2.0801 c0 -1.2207 -0.68359 -2.0703 -2.1484 -2.0703 l-2.4512 0 l0 4.1504 l2.4512 0 z M24.49458515625 20 l-3.6719 -6.2109 l-0.84961 0 l0 6.2109 l-2.9297 0 l0 -14.111 l5.1172 0 c3.1934 0 4.541 1.8848 4.541 4.2188 c0 1.8945 -1.0742 3.125 -2.9883 3.5352 l4.248 6.3574 l-3.4668 0 z M19.97318515625 8.32 l0 3.3691 l1.7285 0 c1.5625 0 2.1973 -0.66406 2.1973 -1.6797 c0 -1.0059 -0.63477 -1.6895 -2.1973 -1.6895 l-1.7285 0 z M40.6984765625 8.467 l-5.2344 0 l0 3.2031 l4.6387 0 l0 2.5488 l-4.6387 0 l0 3.1934 l5.2344 0 l0 2.5879 l-8.1836 0 l0 -14.111 l8.1836 0 l0 2.5781 z M46.12063359375 20 l0 -14.111 l5.1074 0 c4.502 0 6.7285 2.832 6.7285 7.0508 c0 4.2285 -2.2266 7.0605 -6.7285 7.0605 l-5.1074 0 z M49.05033359375 17.4121 l2.0313 0 c2.5977 0 3.7891 -1.6211 3.7891 -4.4727 s-1.1914 -4.4727 -3.7891 -4.4727 l-2.0313 0 l0 8.9453 z M63.105496875 20 l0 -14.111 l2.9297 0 l0 14.111 l-2.9297 0 z M78.33254765625 20.19531 c-4.1504 0 -7.2168 -2.8223 -7.2168 -7.2559 s3.0664 -7.2461 7.2168 -7.2461 c3.1445 0 5.6641 1.6113 6.6699 4.2871 l-2.7344 0.99609 c-0.625 -1.6406 -2.1191 -2.5879 -3.9355 -2.5879 c-2.4316 0 -4.2969 1.6992 -4.2969 4.5508 s1.8652 4.5605 4.2969 4.5605 c1.8164 0 3.3105 -0.95703 3.9355 -2.5977 l2.7344 0.99609 c-1.0059 2.6758 -3.5254 4.2969 -6.6699 4.2969 z M97.9933984375 5.888999999999999 l0 2.5781 l-3.3496 0 l0 11.533 l-2.9004 0 l0 -11.533 l-3.3691 0 l0 -2.5781 l9.6191 0 z M102.61477421875 20 l0 -14.111 l2.9297 0 l0 14.111 l-2.9297 0 z M117.841825 20.19531 c-4.1504 0 -7.2168 -2.832 -7.2168 -7.2559 c0 -4.4336 3.0664 -7.2461 7.2168 -7.2461 c4.1406 0 7.207 2.8125 7.207 7.2461 c0 4.4238 -3.0664 7.2559 -7.207 7.2559 z M117.841825 17.5098 c2.4316 0 4.2969 -1.709 4.2969 -4.5703 c0 -2.8516 -1.8652 -4.5508 -4.2969 -4.5508 s-4.2969 1.6992 -4.2969 4.5508 c0 2.8613 1.8652 4.5703 4.2969 4.5703 z M139.78775390625 5.888999999999999 l2.9199 0 l0 14.111 l-3.3887 0 l-6.25 -10.088 l0 10.088 l-2.9199 0 l0 -14.111 l3.3496 0 l6.2891 10.029 l0 -10.029 z M162.61477421875 20.19531 c-4.1504 0 -7.2168 -2.832 -7.2168 -7.2559 c0 -4.4336 3.0664 -7.2461 7.2168 -7.2461 c4.1406 0 7.207 2.8125 7.207 7.2461 c0 4.4238 -3.0664 7.2559 -7.207 7.2559 z M162.61477421875 17.5098 c2.4316 0 4.2969 -1.709 4.2969 -4.5703 c0 -2.8516 -1.8652 -4.5508 -4.2969 -4.5508 s-4.2969 1.6992 -4.2969 4.5508 c0 2.8613 1.8652 4.5703 4.2969 4.5703 z M183.24170312500002 8.467 l-5.3711 0 l0 3.2031 l4.6387 0 l0 2.5488 l-4.6387 0 l0 5.7813 l-2.9492 0 l0 -14.111 l8.3203 0 l0 2.5781 z M204.6438984375 5.888999999999999 l2.9297 0 l0 14.111 l-2.9297 0 l0 -5.8008 l-5.9668 0 l0 5.8008 l-2.9297 0 l0 -14.111 l2.9297 0 l0 5.7617 l5.9668 0 l0 -5.7617 z M219.88039921875 20.19531 c-4.1504 0 -7.2168 -2.832 -7.2168 -7.2559 c0 -4.4336 3.0664 -7.2461 7.2168 -7.2461 c4.1406 0 7.207 2.8125 7.207 7.2461 c0 4.4238 -3.0664 7.2559 -7.207 7.2559 z M219.88039921875 17.5098 c2.4316 0 4.2969 -1.709 4.2969 -4.5703 c0 -2.8516 -1.8652 -4.5508 -4.2969 -4.5508 s-4.2969 1.6992 -4.2969 4.5508 c0 2.8613 1.8652 4.5703 4.2969 4.5703 z M240.371328125 5.888999999999999 l0 2.5781 l-3.3496 0 l0 11.533 l-2.9004 0 l0 -11.533 l-3.3691 0 l0 -2.5781 l9.6191 0 z M253.17650390625 8.467 l-5.2344 0 l0 3.2031 l4.6387 0 l0 2.5488 l-4.6387 0 l0 3.1934 l5.2344 0 l0 2.5879 l-8.1836 0 l0 -14.111 l8.1836 0 l0 2.5781 z M261.5283609375 17.4121 l4.4238 0 l0 2.5879 l-7.3535 0 l0 -14.111 l2.9297 0 l0 11.523 z M285.7714875 12.5488 c1.5918 0.43945 2.6563 1.4844 2.6563 3.4961 c0 2.3828 -1.4453 3.9551 -4.4238 3.9551 l-5.8105 0 l0 -14.111 l4.5703 0 c3.0469 0 4.6484 1.4648 4.6484 3.8672 c0 1.2402 -0.53711 2.2559 -1.6406 2.793 z M282.7929875 8.32 l-1.7773 0 l0 3.3203 l1.9043 0 c1.25 0 1.7969 -0.74219 1.7969 -1.6992 c0 -0.9375 -0.61523 -1.6211 -1.9238 -1.6211 z M283.4569875 17.4902 c1.582 0 2.1289 -0.84961 2.1289 -1.7676 c0 -0.9375 -0.53711 -1.8262 -2.1875 -1.8262 l-2.3828 0 l0 3.5938 l2.4414 0 z M299.68996953125 20.19531 c-4.1504 0 -7.2168 -2.832 -7.2168 -7.2559 c0 -4.4336 3.0664 -7.2461 7.2168 -7.2461 c4.1406 0 7.207 2.8125 7.207 7.2461 c0 4.4238 -3.0664 7.2559 -7.207 7.2559 z M299.68996953125 17.5098 c2.4316 0 4.2969 -1.709 4.2969 -4.5703 c0 -2.8516 -1.8652 -4.5508 -4.2969 -4.5508 s-4.2969 1.6992 -4.2969 4.5508 c0 2.8613 1.8652 4.5703 4.2969 4.5703 z M318.2470984375 20.19531 c-4.1504 0 -7.2168 -2.832 -7.2168 -7.2559 c0 -4.4336 3.0664 -7.2461 7.2168 -7.2461 c4.1406 0 7.207 2.8125 7.207 7.2461 c0 4.4238 -3.0664 7.2559 -7.207 7.2559 z M318.2470984375 17.5098 c2.4316 0 4.2969 -1.709 4.2969 -4.5703 c0 -2.8516 -1.8652 -4.5508 -4.2969 -4.5508 s-4.2969 1.6992 -4.2969 4.5508 c0 2.8613 1.8652 4.5703 4.2969 4.5703 z M338.90402734375 20 l-4.3848 -5.9961 l-1.0352 0 l0 5.9961 l-2.9297 0 l0 -14.111 l2.9297 0 l0 5.5469 l0.99609 0 l4.4238 -5.5469 l3.5742 0 l-5.4688 6.748 l5.6348 7.3633 l-3.7402 0 z M347.148465625 20 l0 -14.111 l2.9297 0 l0 14.111 l-2.9297 0 z M365.76431640625 5.888999999999999 l2.9199 0 l0 14.111 l-3.3887 0 l-6.25 -10.088 l0 10.088 l-2.9199 0 l0 -14.111 l3.3496 0 l6.2891 10.029 l0 -10.029 z M380.8447390625 20.19531 c-4.0723 0 -7.0703 -2.8125 -7.0703 -7.2168 c0 -4.4629 3.0664 -7.2852 7.2168 -7.2852 c2.7246 0 4.9805 1.2012 6.2109 3.3203 l-2.5684 1.3672 c-0.74219 -1.4453 -2.0703 -2.1387 -3.6426 -2.1387 c-2.4414 0 -4.2773 1.6797 -4.2773 4.668 c0 2.8809 1.7188 4.7363 4.3848 4.7363 c1.8066 0 3.4668 -0.89844 3.8672 -2.959 l-3.8574 0 l0 -2.3535 l6.6309 0 l0 7.666 l-2.3047 0 l0 -1.9531 c-0.9082 1.3379 -2.4316 2.1484 -4.5898 2.1484 z M407.031278125 20.19531 c-4.1504 0 -7.2168 -2.8223 -7.2168 -7.2559 s3.0664 -7.2461 7.2168 -7.2461 c3.1445 0 5.6641 1.6113 6.6699 4.2871 l-2.7344 0.99609 c-0.625 -1.6406 -2.1191 -2.5879 -3.9355 -2.5879 c-2.4316 0 -4.2969 1.6992 -4.2969 4.5508 s1.8652 4.5605 4.2969 4.5605 c1.8164 0 3.3105 -0.95703 3.9355 -2.5977 l2.7344 0.99609 c-1.0059 2.6758 -3.5254 4.2969 -6.6699 4.2969 z M427.95212890625 20 l-1.0254 -2.9102 l-5.9277 0 l-1.0254 2.9102 l-2.998 0 l5.1953 -14.111 l3.584 0 l5.1953 14.111 l-2.998 0 z M421.85792890625 14.6387 l4.209 0 l-2.0996 -5.9863 z M445.1124609375 5.888999999999999 l2.9199 0 l0 14.111 l-3.3887 0 l-6.25 -10.088 l0 10.088 l-2.9199 0 l0 -14.111 l3.3496 0 l6.2891 10.029 l0 -10.029 z M460.33938359375 20.19531 c-4.1504 0 -7.2168 -2.8223 -7.2168 -7.2559 s3.0664 -7.2461 7.2168 -7.2461 c3.1445 0 5.6641 1.6113 6.6699 4.2871 l-2.7344 0.99609 c-0.625 -1.6406 -2.1191 -2.5879 -3.9355 -2.5879 c-2.4316 0 -4.2969 1.6992 -4.2969 4.5508 s1.8652 4.5605 4.2969 4.5605 c1.8164 0 3.3105 -0.95703 3.9355 -2.5977 l2.7344 0.99609 c-1.0059 2.6758 -3.5254 4.2969 -6.6699 4.2969 z M480.000234375 8.467 l-5.2344 0 l0 3.2031 l4.6387 0 l0 2.5488 l-4.6387 0 l0 3.1934 l5.2344 0 l0 2.5879 l-8.1836 0 l0 -14.111 l8.1836 0 l0 2.5781 z M488.35209140625 17.4121 l4.4238 0 l0 2.5879 l-7.3535 0 l0 -14.111 l2.9297 0 l0 11.523 z M500.3467203125 17.4121 l4.4238 0 l0 2.5879 l-7.3535 0 l0 -14.111 l2.9297 0 l0 11.523 z M518.85544921875 20 l-1.0254 -2.9102 l-5.9277 0 l-1.0254 2.9102 l-2.998 0 l5.1953 -14.111 l3.584 0 l5.1953 14.111 l-2.998 0 z M512.76124921875 14.6387 l4.209 0 l-2.0996 -5.9863 z M534.56078125 5.888999999999999 l0 2.5781 l-3.3496 0 l0 11.533 l-2.9004 0 l0 -11.533 l-3.3691 0 l0 -2.5781 l9.6191 0 z M539.18215703125 20 l0 -14.111 l2.9297 0 l0 14.111 l-2.9297 0 z M554.4092078125 20.19531 c-4.1504 0 -7.2168 -2.832 -7.2168 -7.2559 c0 -4.4336 3.0664 -7.2461 7.2168 -7.2461 c4.1406 0 7.207 2.8125 7.207 7.2461 c0 4.4238 -3.0664 7.2559 -7.207 7.2559 z M554.4092078125 17.5098 c2.4316 0 4.2969 -1.709 4.2969 -4.5703 c0 -2.8516 -1.8652 -4.5508 -4.2969 -4.5508 s-4.2969 1.6992 -4.2969 4.5508 c0 2.8613 1.8652 4.5703 4.2969 4.5703 z M576.35513671875 5.888999999999999 l2.9199 0 l0 14.111 l-3.3887 0 l-6.25 -10.088 l0 10.088 l-2.9199 0 l0 -14.111 l3.3496 0 l6.2891 10.029 l0 -10.029 z M597.09225703125 20.19531 c-3.252 0 -5.1172 -2.3828 -5.1172 -7.2559 c0 -4.8828 1.8555 -7.2461 5.1172 -7.2461 c3.2422 0 5.1074 2.3633 5.1074 7.2461 c0 4.873 -1.875 7.2559 -5.1074 7.2559 z M597.09225703125 17.6562 c1.416 0 2.2949 -1.4258 2.2949 -4.7168 c0 -3.3203 -0.9082 -4.7168 -2.2949 -4.7168 c-1.416 0 -2.3047 1.3965 -2.3047 4.7168 c0 3.291 0.86914 4.7168 2.3047 4.7168 z M608.6670015625 20.19531 c-0.86914 0 -1.6016 -0.72266 -1.6016 -1.6016 s0.73242 -1.6211 1.6016 -1.6211 c0.88867 0 1.6211 0.74219 1.6211 1.6211 s-0.73242 1.6016 -1.6211 1.6016 z M615.38819921875 5.888999999999999 l9.9316 0 l0 2.168 l-6.377 11.943 l-3.1836 0 l6.3965 -11.611 l-6.7676 0 l0 -2.5 z M631.86524375 20.19531 c-0.86914 0 -1.6016 -0.72266 -1.6016 -1.6016 s0.73242 -1.6211 1.6016 -1.6211 c0.88867 0 1.6211 0.74219 1.6211 1.6211 s-0.73242 1.6016 -1.6211 1.6016 z M643.49854140625 5.702999999999999 c2.9199 0 5.1855 2.1094 5.1855 4.9121 c0 1.1035 -0.36133 2.2168 -1.2598 3.4375 l-4.3945 5.9473 l-3.2031 0 l3.6523 -4.7754 c-0.21484 0.029297 -0.41992 0.039063 -0.63477 0.039063 c-2.3926 0 -4.5605 -1.8164 -4.5703 -4.6387 c-0.019531 -2.8906 2.4219 -4.9219 5.2246 -4.9219 z M646.03764140625 10.7227 c0.029297 -1.4746 -0.92773 -2.4902 -2.4609 -2.4902 c-1.4844 0 -2.5488 1.0059 -2.5586 2.4609 c-0.019531 1.4648 0.99609 2.5293 2.5293 2.5293 c1.4941 0 2.4707 -1.0938 2.4902 -2.5 z M662.6515859375 5.888999999999999 l3.1152 0 l-5.2148 14.111 l-3.2227 0 l-5.1855 -14.111 l3.1055 0 l3.7012 10.693 z"></path></g></svg>